[img]http://img825.imageshack.us/img825/5091/canage.jpg[/img]
[code]
Carnage 2011 R5 READNFO XviD-26K

Imdb: 
http://www.imdb.com/title/tt1692486/

Plot:
Two pairs of parents hold a cordial meeting after their sons are involved in a fight, though as their 

time together progresses, increasingly childish behavior throws the evening into chaos.

Sources:
R5 DVD9 thnxs russains!
Evolution for audio

Notes:
readnfo because audio is cam :P very good cam audio as well!

needed a bit of cutting synced each part and is perfectly in sync :) 

added a few filters to the audio and video to make it sound and look nice :)
enjoy

Greetz:
Xtreme Encode|FYA|ILLUMANTI|CM8|RX|VISION|HDSCENE|NIGHTMAREZ|xTriLL
To all the people who have helped me :P you know who you are

Anything to offer email us @: 26k@hushmail.me

Video
ID                                       : 0
Format                                   : MPEG-4 Visual
Format profile                           : Advanced Simple@L5
Format settings, BVOP                    : 2
Format settings, QPel                    : No
Format settings, GMC                     : No warppoints
Format settings, Matrix                  : Default (H.263)
Codec ID                                 : XVID
Codec ID/Hint                            : XviD
Duration                                 : 1h 16mn
Bit rate                                 : 1 500 Kbps
Width                                    : 640 pixels
Height                                   : 272 pixels
Display aspect ratio                     : 2.35:1
Frame rate                               : 23.976 fps
Color space                              : YUV
Chroma subsampling                       : 4:2:0
Bit depth                                : 8 bits
Scan type                                : Progressive
Compression mode                         : Lossy
Bits/(Pixel*Frame)                       : 0.359
Stream size                              : 817 MiB (92%)
Writing library                          : XviD 63

Audio
ID                                       : 1
Format                                   : MPEG Audio
Format version                           : Version 1
Format profile                           : Layer 3
Codec ID                                 : 50
Duration                                 : 1h 16mn
Bit rate mode                            : Constant
Bit rate                                 : 128 Kbps
Channel(s)                               : 2 channels
Sampling rate                            : 44.1 KHz
Compression mode                         : Lossy
Stream size                              : 79.7 MiB (8%)
Alignment                                : Aligned on interleaves
Interleave, duration                     : 60 ms (1.00 video frame)

[/code]
Screens:
[img]http://img20.imageshack.us/img20/8412/vlcsnap2011122114h23m36.png[/img]
[img]http://img853.imageshack.us/img853/6673/vlcsnap2011122114h23m41.png[/img]
[img]http://img205.imageshack.us/img205/5456/vlcsnap2011122114h23m46.png[/img]
[img]http://img210.imageshack.us/img210/6089/vlcsnap2011122114h23m53.png[/img]
[img]http://img100.imageshack.us/img100/5746/vlcsnap2011122114h23m57.png[/img]

[img]http://img851.imageshack.us/img851/5503/26ks.jpg[/img]
Thank you smallz for banner!
